<svg xmlns="http://www.w3.org/2000/svg" xmlns:xlink="http://www.w3.org/1999/xlink" width="500" zoomAndPan="magnify" viewBox="0 0 375 374.999991" height="500" preserveAspectRatio="xMidYMid meet" version="1.0"><defs><clipPath id="dc3c5fffa4"><path d="M 115 124.125 L 260 124.125 L 260 250.875 L 115 250.875 Z M 115 124.125 " clip-rule="nonzero"/></clipPath><clipPath id="bfc1f7f3a2"><path d="M 112.5 139 L 262.5 139 L 262.5 235 L 112.5 235 Z M 112.5 139 " clip-rule="nonzero"/></clipPath><clipPath id="2625cca38f"><path d="M 81.511719 81.511719 L 293.761719 81.511719 L 293.761719 293.761719 L 81.511719 293.761719 Z M 81.511719 81.511719 " clip-rule="nonzero"/></clipPath></defs><g clip-path="url(#dc3c5fffa4)"><path fill="#e95060" d="M 219.75 124.132812 C 206.386719 124.132812 194.59375 130.808594 187.496094 140.996094 C 180.398438 130.808594 168.605469 124.132812 155.242188 124.132812 C 133.542969 124.132812 115.953125 141.722656 115.953125 163.417969 C 115.953125 212.859375 187.492188 250.859375 187.496094 250.859375 C 187.496094 250.859375 259.039062 212.859375 259.039062 163.417969 C 259.039062 141.722656 241.449219 124.132812 219.75 124.132812 " fill-opacity="1" fill-rule="nonzero"/></g><g clip-path="url(#bfc1f7f3a2)"><path fill="#ffffff" d="M 184.050781 234.148438 C 182.6875 234.148438 181.519531 233.164062 181.292969 231.8125 L 173.117188 182.9375 L 169.019531 194.074219 C 168.617188 195.171875 167.570312 195.902344 166.398438 195.902344 L 115.292969 195.902344 C 113.75 195.902344 112.496094 194.652344 112.496094 193.109375 C 112.496094 191.566406 113.75 190.3125 115.292969 190.3125 L 164.449219 190.3125 L 171.511719 171.113281 C 171.949219 169.921875 173.152344 169.160156 174.394531 169.296875 C 175.660156 169.414062 176.683594 170.367188 176.894531 171.617188 L 183.90625 213.527344 L 194.675781 141.871094 C 194.882812 140.5 196.058594 139.492188 197.441406 139.492188 C 197.457031 139.492188 197.46875 139.492188 197.484375 139.492188 C 198.886719 139.511719 200.050781 140.566406 200.21875 141.960938 L 206.558594 195.613281 L 207.746094 192.191406 C 208.132812 191.066406 209.195312 190.3125 210.386719 190.3125 L 259.699219 190.3125 C 261.242188 190.3125 262.496094 191.566406 262.496094 193.109375 C 262.496094 194.652344 261.242188 195.902344 259.699219 195.902344 L 212.375 195.902344 L 207.851562 208.945312 C 207.425781 210.175781 206.210938 210.949219 204.90625 210.808594 C 203.613281 210.667969 202.585938 209.652344 202.433594 208.355469 L 197.109375 163.300781 L 186.816406 231.769531 C 186.613281 233.128906 185.449219 234.140625 184.074219 234.148438 C 184.066406 234.148438 184.058594 234.148438 184.050781 234.148438 " fill-opacity="1" fill-rule="nonzero"/></g><g clip-path="url(#2625cca38f)"><path fill="#e95060" d="M 187.496094 81.511719 C 129.019531 81.511719 81.511719 129.019531 81.511719 187.496094 C 81.511719 245.96875 129.019531 293.480469 187.496094 293.480469 C 245.96875 293.480469 293.480469 245.96875 293.480469 187.496094 C 293.480469 129.019531 245.96875 81.511719 187.496094 81.511719 Z M 187.496094 86.117188 C 243.542969 86.117188 288.871094 131.449219 288.871094 187.496094 C 288.871094 243.542969 243.542969 288.871094 187.496094 288.871094 C 131.449219 288.871094 86.117188 243.542969 86.117188 187.496094 C 86.117188 131.449219 131.449219 86.117188 187.496094 86.117188 Z M 187.496094 86.117188 " fill-opacity="1" fill-rule="nonzero"/></g></svg>